<svg version="1.1" id="Layer_1" xmlns="http://www.w3.org/2000/svg" xmlns:xlink="http://www.w3.org/1999/xlink"
	 viewBox="0 0 108 44">
    <style>
        .logo-fill-white{fill:#ffffff}
    </style>
    <g>
        <path class="logo-fill-white" d="M7.6,40.1c-2.3,0-3.3-1.8-3.3-4.4c0-2.7,1.1-4.4,3.4-4.4c1.4,0,2.3,0.9,2.6,2.1h3.7c-0.5-3.1-2.7-5.2-6.4-5.2
            c-4.3,0-7,3.2-7,7.5s2.8,7.5,7.2,7.5c3.8,0,6.1-2.4,6.4-5.4h-3.6C10.1,39.3,9.1,40.1,7.6,40.1z"/>
        <path class="logo-fill-white" d="M27.8,40.6v-7.1c0-3.3-1.7-5.2-5.9-5.2c-4.1,0-5.9,2.1-6.1,4.6h3.3c0.1-1.3,1-2,2.7-2c1.6,0,2.4,0.6,2.4,1.7
            c0,1.1-1.1,1.3-3.4,1.6c-3.1,0.5-5.7,1.4-5.7,4.5c0,2.8,2,4.3,4.9,4.3c2.4,0,3.4-0.8,4.2-1.9h0c0.1,0.6,0.2,1.3,0.5,1.6h3.6v-0.1
            C28,42.3,27.8,41.7,27.8,40.6z M24.3,37.7c0,1.4-1.2,2.7-3.3,2.7c-1.3,0-2.2-0.5-2.2-1.8s1-1.7,2.9-2.2c0.9-0.2,2-0.5,2.6-0.8
            L24.3,37.7L24.3,37.7z"/>
        <path class="logo-fill-white" d="M38.1,28.2c-1.9,0-3.2,0.8-4.2,2.3h-0.1v-1.9h-3.7v14.1h3.8v-8c0-1.9,1.2-3.2,2.8-3.2c1.6,0,2.4,1.1,2.4,2.6
            v8.7H43v-9.2C43,30.4,41,28.2,38.1,28.2z"/>
        <path class="logo-fill-white" d="M53.2,28.2c-1.9,0-3.2,0.8-4.2,2.3h-0.1v-1.9h-3.7v14.1H49v-8c0-1.9,1.2-3.2,2.8-3.2c1.6,0,2.4,1.1,2.4,2.6
            v8.7H58v-9.2C58,30.4,56.1,28.2,53.2,28.2z"/>
        <path class="logo-fill-white" d="M72.3,40.6v-7.1c0-3.3-1.7-5.2-5.9-5.2c-4.1,0-5.9,2.1-6.1,4.6h3.3c0.1-1.3,1-2,2.7-2c1.6,0,2.4,0.6,2.4,1.7
            c0,1.1-1.1,1.3-3.4,1.6c-3.1,0.5-5.7,1.4-5.7,4.5c0,2.8,2,4.3,4.9,4.3c2.4,0,3.4-0.8,4.2-1.9h0c0.1,0.6,0.2,1.3,0.5,1.6h3.6v-0.1
            C72.5,42.3,72.3,41.7,72.3,40.6z M68.8,37.7c0,1.4-1.2,2.7-3.3,2.7c-1.3,0-2.2-0.5-2.2-1.8s1-1.7,2.9-2.2c0.9-0.2,2-0.5,2.6-0.8
            L68.8,37.7L68.8,37.7z"/>
        <path class="logo-fill-white" d="M82.4,28.2c-2,0-3.2,0.9-3.9,2.1h-0.1V23h-3.8v19.6h3.6v-1.7h0c0.8,1.3,2.2,2.1,4.2,2.1c3.5,0,5.9-2.9,5.9-7.5
            C88.5,31.2,85.9,28.2,82.4,28.2z M81.7,39.9c-2.1,0-3.4-1.6-3.4-4.2c0-2.6,0.9-4.5,3.2-4.5c2.1,0,3.1,1.8,3.1,4.4
            C84.7,38.3,83.6,39.9,81.7,39.9z"/>
        <rect x="90.2" y="23" class="logo-fill-white" width="3.8" height="3.3"/>
        <rect x="90.2" y="28.6" class="logo-fill-white" width="3.8" height="14.1"/>
        <path class="logo-fill-white" d="M103,34.1c-2-0.4-3.9-0.5-3.9-1.7c0-1,1-1.6,2.4-1.6c1.6,0,2.6,0.5,2.7,2.1h3.4c-0.3-2.8-2.3-4.7-6-4.7
            c-3.2,0-5.7,1.5-5.7,4.5c0,3.1,2.5,3.8,5,4.3c1.9,0.4,3.7,0.5,3.7,1.9c0,1-0.9,1.6-2.6,1.6c-1.7,0-2.8-0.7-3.1-2.3h-3.5
            c0.2,3,2.5,5,6.6,5c3.5,0,5.9-1.7,5.9-4.5C108,35.3,105.3,34.6,103,34.1z"/>
    </g>
    <g>
        <path class="logo-fill-white" d="M1.9,4.4v1.3H0v2.6h1.9v11.5h3.8V8.2h2.5V5.7H5.7V4.6c0-1.5,0.8-1.7,2.5-1.6V0.1C4.6-0.2,1.9,1,1.9,4.4z"/>
        <path class="logo-fill-white" d="M15.7,5.3c-4.1,0-7,3.2-7,7.4c0,4.2,2.7,7.5,7.3,7.5c3.6,0,5.9-2.1,6.4-4.6h-3.7c-0.4,1.1-1.3,1.7-2.7,1.7
            c-2.1,0-3.3-1.3-3.6-3.5h10.2C22.7,8.7,20.3,5.3,15.7,5.3z M12.5,11.2c0.3-1.8,1.3-3,3.2-3c1.7,0,2.9,1.2,3,3H12.5z"/>
        <rect x="24.5" y="0.1" class="logo-fill-white" width="3.8" height="19.6"/>
        <rect x="30.7" y="0.1" class="logo-fill-white" width="3.8" height="19.6"/>
        <path class="logo-fill-white" d="M43.6,5.3c-4.3,0-7.4,3.2-7.4,7.5s3,7.5,7.4,7.5c4.3,0,7.4-3.2,7.4-7.5S47.9,5.3,43.6,5.3z M43.6,17.3
            c-2.3,0-3.6-1.8-3.6-4.6s1.3-4.6,3.6-4.6s3.6,1.9,3.6,4.6C47.2,15.5,45.9,17.3,43.6,17.3z"/>
        <rect x="37.1" y="0.1" class="logo-fill-white" width="12.9" height="3.6"/>
    </g>
</svg>
