<svg version="1.1" xmlns="http://www.w3.org/2000/svg" xmlns:xlink="http://www.w3.org/1999/xlink" viewBox="0 0 362.6 43.9">
	<style>
		.logo-fill-white{fill:#ffffff}
	</style>
	<path class="logo-fill-white" d="M4.2,9.4v2.8H0v5.6h4.2V43h8.2V17.8h5.5v-5.6h-5.5V9.9c0-3.2,1.7-3.7,5.5-3.5V0.1C10-0.7,4.2,1.9,4.2,9.4z"/>
	<path class="logo-fill-white" d="M34.4,11.4c-9,0-15.2,7.1-15.2,16.2c0,9.2,5.8,16.3,16,16.3c7.9,0,12.8-4.6,13.9-10.1h-8
		c-0.9,2.3-2.8,3.8-5.9,3.8c-4.6,0-7.3-2.9-7.9-7.7h22.3C49.6,18.9,44.3,11.4,34.4,11.4z M27.4,24.3c0.7-4,2.8-6.6,7.1-6.6
		c3.7,0,6.3,2.7,6.5,6.6H27.4z"/>
	<rect x="53.5" y="0.1" class="logo-fill-white" width="8.2" height="42.9"/>
	<rect x="67.1" y="0.1" class="logo-fill-white" width="8.2" height="42.9"/>
	<path class="logo-fill-white" d="M95.3,11.4c-9.5,0-16.1,7.1-16.1,16.3s6.5,16.3,16.1,16.3c9.5,0,16.1-7.1,16.1-16.3S104.8,11.4,95.3,11.4z
			M95.3,37.6c-5,0-7.8-4-7.8-10c0-6,2.8-10.1,7.8-10.1c5,0,7.8,4.1,7.8,10.1C103.1,33.6,100.3,37.6,95.3,37.6z"/>
	<path class="logo-fill-white" d="M143.1,37.3c-5,0-7.3-3.9-7.3-9.7c0-5.9,2.5-9.7,7.4-9.7c3,0,5.1,2,5.6,4.7h8c-1.1-6.7-6-11.3-14-11.3
		c-9.4,0-15.4,7.1-15.4,16.3s6.1,16.3,15.8,16.3c8.2,0,13.3-5.2,13.9-11.8h-7.9C148.7,35.6,146.4,37.3,143.1,37.3z"/>
	<path class="logo-fill-white" d="M187.4,38.4V22.8c0-7.2-3.7-11.3-13-11.3c-9,0-13,4.7-13.3,10.1h7.3c0.2-2.9,2.1-4.3,5.9-4.3
		c3.4,0,5.2,1.4,5.2,3.7c0,2.3-2.3,2.8-7.4,3.5c-6.8,1-12.4,3.1-12.4,9.9c0,6.1,4.4,9.4,10.7,9.4c5.3,0,7.5-1.8,9.1-4.1h0.1
		c0.2,1.4,0.5,2.8,1,3.4h7.9v-0.3C187.8,42.1,187.4,40.8,187.4,38.4z M179.7,32.1c0,3-2.6,5.9-7.3,5.9c-2.9,0-4.8-1-4.8-3.9
		c0-2.9,2.1-3.8,6.4-4.8c2-0.5,4.3-1,5.7-1.8V32.1z"/>
	<path class="logo-fill-white" d="M209.9,11.4c-4.2,0-7,1.7-9.1,5h-0.2v-4.2h-8V43h8.2V25.5c0-4.2,2.6-7.1,6.2-7.1c3.4,0,5.3,2.3,5.3,5.6V43h8.2
		V22.9C220.5,16.2,216.2,11.4,209.9,11.4z"/>
	<path class="logo-fill-white" d="M242.8,11.4c-4.2,0-7,1.7-9.1,5h-0.2v-4.2h-8V43h8.2V25.5c0-4.2,2.6-7.1,6.2-7.1c3.4,0,5.3,2.3,5.3,5.6V43h8.2
		V22.9C253.4,16.2,249.2,11.4,242.8,11.4z"/>
	<path class="logo-fill-white" d="M284.6,38.4V22.8c0-7.2-3.7-11.3-13-11.3c-9,0-13,4.7-13.3,10.1h7.3c0.2-2.9,2.1-4.3,5.9-4.3
		c3.4,0,5.2,1.4,5.2,3.7c0,2.3-2.3,2.8-7.4,3.5c-6.8,1-12.4,3.1-12.4,9.9c0,6.1,4.4,9.4,10.7,9.4c5.3,0,7.5-1.8,9.1-4.1h0.1
		c0.2,1.4,0.5,2.8,1,3.4h7.9v-0.3C285,42.1,284.6,40.8,284.6,38.4z M276.9,32.1c0,3-2.6,5.9-7.3,5.9c-2.9,0-4.8-1-4.8-3.9
		c0-2.9,2.1-3.8,6.4-4.8c2-0.5,4.3-1,5.7-1.8V32.1z"/>
	<path class="logo-fill-white" d="M306.7,11.4c-4.3,0-6.9,2-8.6,4.6h-0.2V0.1h-8.2V43h7.9v-3.8h0.1c1.8,2.9,4.9,4.7,9.2,4.7
		c7.7,0,13-6.3,13-16.3C320,18,314.4,11.4,306.7,11.4z M305.1,37c-4.6,0-7.4-3.6-7.4-9.2c0-5.7,1.9-9.8,7.1-9.8c4.6,0,6.8,4,6.8,9.7
		C311.7,33.5,309.3,37,305.1,37z"/>
	<rect x="323.7" y="0.1" class="logo-fill-white" width="8.2" height="7.3"/>
	<rect x="323.7" y="12.2" class="logo-fill-white" width="8.2" height="30.8"/>
	<path class="logo-fill-white" d="M351.8,24.3c-4.4-0.9-8.5-1.1-8.5-3.8c0-2.2,2.1-3.4,5.3-3.4c3.5,0,5.6,1.2,5.9,4.5h7.4
		c-0.6-6.2-5.1-10.2-13.2-10.2c-7,0-12.5,3.2-12.5,9.8c0,6.7,5.4,8.2,10.9,9.3c4.2,0.8,8.1,1.1,8.1,4.1c0,2.2-2,3.5-5.6,3.5
		c-3.7,0-6.2-1.6-6.7-5.1h-7.6c0.5,6.5,5.5,10.9,14.4,10.9c7.7,0,13-3.7,13-9.9C362.6,26.8,356.9,25.3,351.8,24.3z"/>
	<rect x="81.1" y="0.1" class="logo-fill-white" width="28.2" height="7.8"/>
</svg>