<svg version="1.1" xmlns="http://www.w3.org/2000/svg" xmlns:xlink="http://www.w3.org/1999/xlink" x="0px" y="0px" width="2000px"
	 height="2000px" viewBox="0 0 2000 2000" style="overflow:visible;enable-background:new 0 0 2000 2000;" xml:space="preserve">
<style type="text/css">
	.st0{fill:#3350A1;}
	.st1{fill:url(#SVGID_1_);}
	.st2{fill:#F7F7CD;}
	.st3{fill:#D9E022;}
	.st4{fill:#BA1E4E;}
	.st5{fill:#EB0D8C;}
	.st6{fill:#057361;}
	.st7{fill:#FDE5E1;}
	.st8{fill:#12BBB5;}
	.st9{fill:url(#SVGID_2_);}
	.st10{fill:#FBB040;}
	.st11{fill:#A6DDE8;}
	.st12{fill:#F89F83;}
	.st13{fill:#09BBB5;}
	.st14{fill:url(#SVGID_3_);}
	.st15{fill:url(#SVGID_4_);}
</style>
<defs>
</defs>
<rect width="2000" height="2000"/>
<g>
	<circle class="st0" cx="1000" cy="1130.9" r="369.1"/>
	<linearGradient id="SVGID_1_" gradientUnits="userSpaceOnUse" x1="677.7673" y1="589.1154" x2="1322.2327" y2="589.1154">
		<stop  offset="0" style="stop-color:#1BC1DF"/>
		<stop  offset="1" style="stop-color:#007360"/>
	</linearGradient>
	<rect x="677.8" y="500" class="st1" width="644.5" height="178.2"/>
</g>
<g>
	<circle class="st2" cx="1000" cy="1130.9" r="369.1"/>
	<rect x="677.8" y="500" class="st3" width="644.5" height="178.2"/>
</g>
<g>
	<rect x="677.8" y="500" class="st2" width="644.5" height="178.2"/>
	<path class="st4" d="M1000,1500c-100.7,0-192.2-40.4-258.7-105.9L1263,872.2c65.6,66.5,106,158,106,258.7
		C1369.1,1334.8,1203.7,1500,1000,1500z"/>
	<path class="st3" d="M741.3,1394c-68.1-66.9-110.3-160-110.3-263.1c0-203.8,165.2-369.1,369.1-369.1c103,0,196.2,42.2,263,110.3
		L741.3,1394z"/>
	<path class="st5" d="M741.3,1394c-68.1-66.9-110.3-160-110.3-263.1c0-203.8,165.2-369.1,369.1-369.1c103,0,196.2,42.2,263,110.3
		L741.3,1394z"/>
</g>
<g>
	<circle class="st6" cx="1000" cy="1130.9" r="369.1"/>
	<rect x="677.8" y="500" class="st7" width="644.5" height="178.2"/>
	<path class="st8" d="M1000,1130.9h369.1c0-203.8-165.2-369.1-369.1-369.1V1130.9z"/>
</g>
<g>
	<circle class="st7" cx="1000" cy="1130.9" r="369.1"/>
	<rect x="677.8" y="500" class="st0" width="644.5" height="178.2"/>
	<linearGradient id="SVGID_2_" gradientUnits="userSpaceOnUse" x1="920.1224" y1="1453.8826" x2="1264.4929" y2="857.4153">
		<stop  offset="0" style="stop-color:#15BEF0"/>
		<stop  offset="1" style="stop-color:#7C66AD"/>
	</linearGradient>
	<path class="st9" d="M1000,1500c203.8,0,369.1-165.2,369.1-369.1S1203.8,761.9,1000,761.9V1500z"/>
</g>
<g>
	<circle class="st10" cx="1000" cy="1130.9" r="369.1"/>
	<rect x="677.8" y="500" class="st11" width="644.5" height="178.2"/>
	<path class="st12" d="M1000,1130.9V761.9c-203.8,0-369.1,165.2-369.1,369.1H1000z"/>
</g>
<g>
	<circle class="st7" cx="1000" cy="1130.9" r="369.1"/>
	<rect x="677.8" y="500" class="st13" width="644.5" height="178.2"/>
</g>
</svg>
